<?xml version="1.0" standalone="no"?>
<!DOCTYPE svg PUBLIC "-//W3C//DTD SVG 20010904//EN"
 "http://www.w3.org/TR/2001/REC-SVG-20010904/DTD/svg10.dtd">
<svg version="1.0" xmlns="http://www.w3.org/2000/svg"
 width="2723.000000pt" height="2723.000000pt" viewBox="0 0 2723.000000 2723.000000"
 preserveAspectRatio="xMidYMid meet">
<metadata>
Created by potrace 1.14, written by Peter Selinger 2001-2017
</metadata>
<g transform="translate(0.000000,2723.000000) scale(0.100000,-0.100000)"
fill="#000000" stroke="none">
<path d="M11790 27219 c-414 -20 -892 -71 -1360 -145 -758 -120 -1233 -273
-1680 -542 -332 -199 -431 -295 -488 -471 -23 -71 -24 -92 -27 -336 -2 -143
-8 -321 -14 -395 -21 -252 -62 -615 -76 -672 -20 -79 -57 -149 -98 -185 -43
-37 -363 -257 -832 -570 -435 -291 -693 -472 -800 -563 -95 -80 -352 -342
-449 -455 -37 -44 -106 -142 -154 -219 -113 -183 -139 -215 -277 -336 -257
-226 -442 -482 -649 -895 -46 -94 -110 -203 -140 -244 -87 -116 -98 -146 -106
-281 -4 -64 -10 -122 -14 -129 -5 -7 -40 -27 -80 -45 l-71 -33 -155 -274
c-256 -456 -294 -536 -425 -914 -224 -647 -832 -2595 -837 -2680 -1 -28 -1
-111 0 -185 l2 -135 83 140 82 140 3 -57 c2 -43 -47 -307 -197 -1060 -230
-1154 -266 -1345 -439 -2353 l-127 -740 5 -260 c13 -701 3 -907 -61 -1168 -17
-67 -33 -158 -36 -202 -10 -139 39 -624 88 -875 33 -169 33 -186 -2 -359 -32
-156 -21 -262 34 -334 23 -31 25 -43 41 -312 9 -154 25 -458 36 -675 43 -850
81 -1293 150 -1765 11 -76 18 -154 14 -174 -3 -20 -14 -82 -25 -139 -29 -155
-26 -187 21 -274 146 -263 199 -429 220 -690 6 -72 7 -169 3 -234 -5 -62 -5
-125 -1 -140 15 -62 389 -1293 466 -1535 125 -392 226 -683 545 -1557 269
-740 294 -802 312 -796 49 16 81 14 112 -5 42 -26 50 -61 29 -126 -20 -64 -21
-135 -1 -181 8 -19 41 -70 73 -112 32 -43 63 -93 70 -112 47 -128 91 -170 177
-170 54 0 54 0 235 98 41 22 89 43 106 46 17 4 84 -2 150 -13 227 -39 942
-187 1094 -227 106 -27 113 -28 1755 -129 495 -31 1076 -69 1290 -85 573 -43
803 -58 1065 -70 319 -14 3757 -6 4090 9 1259 58 1916 146 3520 470 517 105
588 116 835 126 190 9 316 27 420 63 48 17 180 84 321 164 351 199 415 229
699 331 297 107 572 241 1080 527 160 89 364 211 455 270 251 164 295 181 485
199 145 13 246 47 492 165 180 86 243 110 385 146 88 23 147 111 135 202 -5
40 -18 67 -65 143 -44 71 -66 163 -58 250 6 79 92 404 166 630 92 284 98 322
205 1285 112 1012 191 1550 281 1905 8 33 51 182 94 330 126 431 161 590 254
1135 107 627 170 1091 226 1665 45 465 75 691 124 950 105 548 141 907 201
1980 19 347 42 716 50 820 25 332 28 576 16 1241 -22 1209 -41 1542 -122 2114
-30 209 -46 291 -183 950 -36 173 -106 520 -155 770 -114 580 -159 781 -286
1285 -216 857 -606 2265 -682 2465 -93 244 -121 331 -133 420 -33 238 -65 306
-191 405 -246 194 -311 256 -437 422 -321 420 -714 694 -1160 808 -53 13 -164
36 -246 50 -164 28 -288 65 -397 121 -94 47 -126 68 -294 194 -287 216 -546
336 -827 384 -470 81 -1144 98 -1783 45 -490 -40 -1064 -123 -1293 -186 -105
-29 -135 -34 -142 -24 -4 7 -33 113 -65 235 -73 283 -128 451 -197 601 -231
503 -461 736 -822 830 -153 39 -287 60 -891 135 -844 105 -1211 143 -1605 170
-216 15 -917 20 -1140 9z m608 -1389 c92 -5 295 -17 452 -25 482 -26 783 -59
1035 -111 288 -60 521 -165 1000 -450 102 -60 158 -101 193 -139 38 -42 118
-166 209 -327 2 -5 -7 -13 -21 -19 -21 -10 -76 3 -383 90 -423 119 -563 151
-818 186 -276 38 -362 61 -490 129 -37 20 -73 36 -79 36 -6 0 -27 25 -46 56
-46 74 -108 127 -195 169 -81 39 -143 56 -315 85 -69 12 -177 39 -240 60 -197
66 -258 75 -490 74 -150 0 -228 -5 -290 -17 -227 -46 -224 -46 -372 1 -177 56
-275 72 -427 72 -257 0 -492 -84 -694 -246 -60 -48 -69 -52 -137 -58 -95 -10
-188 -38 -278 -87 -90 -48 -153 -96 -330 -251 -156 -137 -177 -152 -249 -173
-29 -9 -60 -18 -69 -22 -15 -6 -16 1 -9 63 10 93 38 202 68 261 59 115 153
187 402 308 413 202 810 286 1282 271 109 -3 286 -9 394 -12 222 -7 325 5 489
55 109 34 154 36 408 21z m8662 -2425 c209 -32 339 -85 537 -221 409 -279 645
-559 798 -949 63 -160 122 -264 345 -605 314 -480 398 -660 525 -1114 138
-497 215 -932 350 -1986 58 -449 76 -578 169 -1155 102 -633 178 -1229 221
-1735 27 -327 71 -1182 120 -2355 9 -209 20 -406 25 -439 8 -48 6 -73 -10
-135 -32 -124 -40 -201 -50 -503 -6 -183 -16 -326 -27 -395 -15 -88 -17 -155
-15 -360 3 -246 2 -255 -27 -400 -35 -173 -52 -291 -86 -618 -14 -132 -36
-314 -50 -405 -13 -91 -49 -361 -80 -600 -81 -633 -85 -651 -161 -700 -43 -27
-209 -88 -217 -80 -7 7 -254 600 -302 725 -70 180 -72 196 -110 940 -96 1852
-103 1980 -145 2450 -60 667 -63 727 -90 1435 -26 691 -91 1419 -186 2070 -42
293 -79 480 -144 735 -153 600 -186 733 -260 1065 -98 440 -127 558 -186 749
-137 440 -325 873 -578 1328 -65 117 -126 236 -137 264 -11 28 -37 153 -59
277 -109 634 -272 1184 -544 1835 -110 263 -135 305 -374 625 -84 112 -152
207 -152 212 0 7 187 31 380 50 137 13 420 11 520 -5z m-1150 -392 c326 -402
605 -947 704 -1373 33 -141 37 -172 27 -168 -19 7 -1512 1391 -1509 1400 2 4
136 87 298 182 l295 174 43 -47 c24 -25 88 -101 142 -168z m-5133 -1768 c91
-29 208 -93 308 -169 102 -79 238 -207 228 -217 -11 -11 -664 -321 -668 -317
-5 5 -254 651 -257 667 -2 9 19 22 62 37 93 33 221 33 327 -1z m-1412 -1725
c223 -20 812 -91 872 -105 79 -18 134 -55 173 -114 45 -72 66 -145 99 -344 77
-466 301 -2109 301 -2208 0 -50 -34 -256 -44 -266 -2 -3 -127 20 -278 51 -150
30 -307 60 -348 65 -230 32 -614 47 -810 32 -324 -25 -1448 -200 -2729 -427
-1014 -179 -1719 -337 -2716 -609 -596 -163 -642 -178 -1009 -329 -115 -47
-211 -84 -214 -81 -13 13 -698 2931 -691 2941 28 35 172 84 792 270 375 113
828 251 1007 309 179 57 396 125 484 150 1040 300 2638 559 4011 650 537 36
830 40 1100 15z m1390 -6479 c173 -44 236 -51 465 -51 270 0 388 -12 540 -55
217 -61 395 -90 780 -125 329 -31 465 -52 834 -135 182 -40 581 -126 886 -190
813 -170 848 -179 929 -219 66 -34 70 -38 65 -63 -3 -16 -47 -215 -98 -443
-71 -323 -95 -415 -106 -413 -180 22 -5316 707 -5319 709 -6 5 -48 348 -66
544 -9 92 -13 192 -10 225 14 129 75 193 203 215 122 20 455 39 617 35 136 -3
178 -9 280 -34z m-2674 -90 c55 -13 104 -30 112 -39 28 -31 141 -422 187 -646
11 -54 20 -123 20 -152 0 -143 -85 -215 -292 -247 -33 -5 -23 -65 -88 553 -28
261 -53 495 -57 519 -4 35 -3 43 8 39 8 -3 57 -15 110 -27z m-4089 -861 c75
-223 137 -408 137 -411 1 -7 -209 -101 -274 -122 -27 -9 -232 -53 -455 -97
-223 -45 -479 -99 -570 -120 -215 -51 -288 -64 -567 -100 -388 -50 -507 -78
-767 -180 -273 -106 -462 -157 -1010 -270 -186 -38 -355 -74 -375 -80 -75 -21
-77 -20 -113 88 -31 93 -32 103 -33 262 0 177 13 253 70 393 l25 61 -31 -30
-31 -29 7 40 c39 242 72 318 164 377 64 40 142 62 394 108 120 22 433 87 695
144 931 204 1206 247 1702 266 257 11 378 24 690 79 91 16 174 29 185 28 17
-2 40 -61 157 -407z m11406 -215 c3 -3 -4 -44 -14 -92 -20 -88 -20 -88 -49
-85 -17 2 -33 6 -37 10 -4 4 3 47 15 95 l21 89 30 -6 c16 -4 32 -8 34 -11z
m-15454 -284 l55 -140 -54 -86 c-30 -48 -64 -112 -76 -143 -38 -98 -36 -259 7
-563 l6 -46 -488 -164 c-269 -90 -495 -165 -501 -167 -10 -3 -13 115 -13 565
l0 569 488 156 c268 87 494 157 503 158 12 0 32 -38 73 -139z m17586 -287 c0
-24 -73 -147 -111 -186 -43 -45 -48 -48 -97 -48 -51 0 -132 25 -132 40 0 15
80 109 102 121 21 11 212 76 231 78 4 1 7 -2 7 -5z m-236 -775 c94 -23 140
-91 135 -199 -3 -49 -3 -50 -72 -96 -38 -25 -73 -42 -78 -37 -6 6 -108 236
-146 331 -7 16 100 17 161 1z m656 -434 c96 -85 175 -159 175 -164 0 -5 -127
-95 -281 -200 l-281 -189 -35 36 c-59 64 -68 77 -82 125 l-14 46 79 52 c96 63
151 115 179 168 28 57 27 148 -4 224 l-24 57 57 0 56 -1 175 -154z m730 -65
l0 -120 -33 0 -34 0 -6 112 c-7 121 -5 128 46 128 l27 0 0 -120z m-410 -241
c21 -43 22 -52 10 -60 -8 -5 -62 -38 -120 -74 l-105 -65 -17 22 c-10 13 -17
28 -15 34 2 13 204 194 216 194 4 0 18 -23 31 -51z m-17448 -1097 c59 -108
123 -232 142 -274 79 -174 126 -359 126 -497 l0 -77 -317 -54 c-175 -29 -331
-56 -346 -58 l-28 -4 3 108 3 109 245 38 c134 21 245 39 246 40 5 5 -18 104
-38 165 -25 80 -75 135 -138 152 -37 11 -58 10 -120 -3 -41 -8 -83 -18 -94
-23 -11 -4 -17 -3 -15 3 2 6 51 137 108 292 57 154 107 281 110 281 3 0 54
-89 113 -198z m18643 -425 c14 -24 14 -40 1 -145 -9 -64 -22 -192 -31 -283
-19 -201 -52 -343 -105 -456 -39 -84 -110 -192 -147 -226 -20 -17 -20 -16 -26
95 -3 62 -18 194 -33 293 -37 244 -39 444 -6 560 28 95 76 187 145 273 l50 64
69 -74 c37 -40 75 -85 83 -101z"/>
<path d="M13594 25396 c-4 -9 -4 -19 -2 -22 6 -5 201 -44 225 -44 12 0 14 7 9
32 -3 17 -7 33 -9 34 -1 1 -50 5 -109 9 -95 7 -108 5 -114 -9z"/>
<path d="M21607 21104 c-21 -48 -36 -88 -35 -90 2 -1 15 -5 29 -9 26 -6 28 -4
57 83 17 50 28 93 24 96 -20 21 -40 0 -75 -80z"/>
<path d="M22704 19737 c-20 -37 -28 -73 -32 -124 l-5 -73 31 0 c31 0 32 1 63
103 17 56 32 106 33 111 0 5 -14 15 -31 22 l-33 14 -26 -53z"/>
<path d="M22827 18106 c-37 -63 -67 -117 -67 -120 0 -10 82 -48 88 -41 4 3 29
61 58 128 50 121 51 122 30 134 -12 7 -26 12 -31 13 -6 0 -41 -51 -78 -114z"/>
<path d="M14807 20880 c-65 -21 -121 -41 -124 -43 -2 -3 5 -33 17 -66 l22 -60
42 23 c22 13 77 42 121 66 44 23 81 44 83 45 5 4 -31 75 -37 74 -3 0 -59 -18
-124 -39z"/>
<path d="M15510 12653 c-51 -8 -51 -7 -15 -114 19 -56 37 -104 39 -107 6 -6
76 18 76 26 -1 25 -57 196 -65 197 -6 1 -21 0 -35 -2z"/>
</g>
</svg>
